<svg width="303" height="273" viewBox="0 0 303 273" fill="none" xmlns="http://www.w3.org/2000/svg">
<path d="M250.05 47.7572L209.873 28.5053C208.48 27.8274 206.842 27.8792 205.495 28.6438C182.498 41.6944 154.257 41.666 131.244 28.6447C129.894 27.8811 128.25 27.8276 126.856 28.5062L92.6898 45.8776C87.237 48.65 82.3393 52.3994 78.2399 56.9395L35.6214 104.141C34.6458 105.266 34.5757 106.916 35.4521 108.12C43.5567 119.254 53.7645 128.646 65.3308 136.121L68.1023 137.912C69.3192 138.698 70.8827 138.704 72.1049 137.925L97.7176 121.696L97.6837 164.597V261.821C97.6837 264.364 99.5921 266.502 102.119 266.789L113.131 268.042C149.841 272.218 186.9 272.312 223.631 268.322L237.932 266.769C240.469 266.494 242.392 264.351 242.392 261.798V164.641L242.165 121.851L264.633 137.896C265.864 138.774 267.507 138.813 268.777 137.992L271.437 136.272C283.006 128.796 293.097 119.25 301.203 108.113C302.078 106.911 302.01 105.264 301.038 104.138L254.852 51.4018C253.514 49.8744 251.881 48.6345 250.05 47.7572Z" fill="#E9F2F9"/>
<path d="M242.275 164.992V262.15C242.275 264.702 240.353 266.845 237.815 267.121L223.514 268.674C186.784 272.663 149.724 272.569 113.014 268.393L102.002 267.141C99.4756 266.853 97.5672 264.716 97.5672 262.173V108.668L84.1471 53.9756C83.5858 51.6881 84.6971 49.319 86.815 48.2883L126.739 28.8577C128.134 28.1791 129.777 28.2326 131.127 28.9963C154.14 42.0175 182.382 42.0459 205.378 28.9954C206.726 28.2307 208.363 28.179 209.756 28.8569L254.631 51.1111L242.103 107.555L242.13 179.518" stroke="#7087AD" stroke-width="1.3"/>
<path d="M254.861 51.1562L300.922 104.489C301.894 105.615 301.962 107.262 301.087 108.465V108.465C292.981 119.601 282.89 129.148 271.321 136.624L268.661 138.343C267.391 139.164 265.748 139.126 264.517 138.247L242.049 122.203L241.964 107.42" stroke="#7087AD" stroke-width="1.3"/>
<path d="M85.5411 49.1719L35.5756 104.49C34.5633 105.611 34.4748 107.288 35.3637 108.509V108.509C43.4496 119.618 53.515 129.14 65.0549 136.598L67.8665 138.415C69.0834 139.201 70.6469 139.206 71.8691 138.428L97.6011 122.046" stroke="#7087AD" stroke-width="1.3"/>
<path d="M109.528 87.6709L120.628 87.6709L120.628 89.0359L109.528 89.0359L109.528 87.6709ZM116.488 85.8545C115.648 85.8545 114.913 85.6845 114.283 85.3445C113.643 85.0045 113.148 84.5395 112.798 83.9495C112.448 83.3495 112.273 82.6845 112.273 81.9545C112.273 81.2345 112.428 80.6095 112.738 80.0795C113.048 79.5495 113.438 79.1545 113.908 78.8945L112.408 78.8945L112.408 77.5145L120.628 77.5145L120.628 78.8945L119.098 78.8945C119.578 79.1645 119.978 79.5695 120.298 80.1095C120.608 80.6395 120.763 81.2595 120.763 81.9695C120.763 82.6995 120.583 83.3595 120.223 83.9495C119.863 84.5395 119.358 85.0045 118.708 85.3445C118.058 85.6845 117.318 85.8545 116.488 85.8545ZM116.503 78.8945C115.883 78.8945 115.343 79.0195 114.883 79.2695C114.423 79.5195 114.073 79.8595 113.833 80.2895C113.583 80.7095 113.458 81.1745 113.458 81.6845C113.458 82.1945 113.578 82.6595 113.818 83.0795C114.058 83.4995 114.408 83.8345 114.868 84.0845C115.328 84.3345 115.868 84.4595 116.488 84.4595C117.118 84.4595 117.668 84.3345 118.138 84.0845C118.598 83.8345 118.953 83.4995 119.203 83.0795C119.443 82.6595 119.563 82.1945 119.563 81.6845C119.563 81.1745 119.443 80.7095 119.203 80.2895C118.953 79.8595 118.598 79.5195 118.138 79.2695C117.668 79.0195 117.123 78.8945 116.503 78.8945ZM113.743 73.8428C113.273 73.6028 112.908 73.2628 112.648 72.8228C112.388 72.3728 112.258 71.8278 112.258 71.1878L113.668 71.1878L113.668 71.5478C113.668 73.0778 114.498 73.8428 116.158 73.8428L120.628 73.8428L120.628 75.2078L112.408 75.2078L112.408 73.8428L113.743 73.8428ZM112.273 66.2221C112.273 65.5121 112.428 64.8921 112.738 64.3621C113.048 63.8221 113.438 63.4221 113.908 63.1621L112.408 63.1621L112.408 61.7821L120.808 61.7821C121.558 61.7821 122.223 61.9421 122.803 62.2621C123.393 62.5821 123.853 63.0421 124.183 63.6421C124.513 64.2321 124.678 64.9221 124.678 65.7121C124.678 66.7921 124.423 67.6921 123.913 68.4121C123.403 69.1321 122.708 69.5571 121.828 69.6871L121.828 68.3371C122.328 68.1871 122.728 67.8771 123.028 67.4071C123.338 66.9371 123.493 66.3721 123.493 65.7121C123.493 64.9621 123.258 64.3521 122.788 63.8821C122.318 63.4021 121.658 63.1621 120.808 63.1621L119.083 63.1621C119.563 63.4321 119.963 63.8321 120.283 64.3621C120.603 64.8921 120.763 65.5121 120.763 66.2221C120.763 66.9521 120.583 67.6171 120.223 68.2171C119.863 68.8071 119.358 69.2721 118.708 69.6121C118.058 69.9521 117.318 70.1221 116.488 70.1221C115.648 70.1221 114.913 69.9521 114.283 69.6121C113.643 69.2721 113.148 68.8071 112.798 68.2171C112.448 67.6171 112.273 66.9521 112.273 66.2221ZM116.503 63.1621C115.883 63.1621 115.343 63.2871 114.883 63.5371C114.423 63.7871 114.073 64.1271 113.833 64.5571C113.583 64.9771 113.458 65.4421 113.458 65.9521C113.458 66.4621 113.578 66.9271 113.818 67.3471C114.058 67.7671 114.408 68.1021 114.868 68.3521C115.328 68.6021 115.868 68.7271 116.488 68.7271C117.118 68.7271 117.668 68.6021 118.138 68.3521C118.598 68.1021 118.953 67.7671 119.203 67.3471C119.443 66.9271 119.563 66.4621 119.563 65.9521C119.563 65.4421 119.443 64.9771 119.203 64.5571C118.953 64.1271 118.598 63.7871 118.138 63.5371C117.668 63.2871 117.123 63.1621 116.503 63.1621ZM120.763 55.8904C120.763 56.6604 120.588 57.3604 120.238 57.9904C119.888 58.6104 119.393 59.1004 118.753 59.4604C118.103 59.8104 117.353 59.9854 116.503 59.9854C115.663 59.9854 114.923 59.8054 114.283 59.4454C113.633 59.0754 113.138 58.5754 112.798 57.9454C112.448 57.3154 112.273 56.6104 112.273 55.8304C112.273 55.0504 112.448 54.3454 112.798 53.7154C113.138 53.0854 113.628 52.5904 114.268 52.2304C114.908 51.8604 115.653 51.6754 116.503 51.6754C117.353 51.6754 118.103 51.8654 118.753 52.2454C119.393 52.6154 119.888 53.1204 120.238 53.7604C120.588 54.4004 120.763 55.1104 120.763 55.8904ZM119.563 55.8904C119.563 55.4004 119.448 54.9404 119.218 54.5104C118.988 54.0804 118.643 53.7354 118.183 53.4754C117.723 53.2054 117.163 53.0704 116.503 53.0704C115.843 53.0704 115.283 53.2004 114.823 53.4604C114.363 53.7204 114.023 54.0604 113.803 54.4804C113.573 54.9004 113.458 55.3554 113.458 55.8454C113.458 56.3454 113.573 56.8054 113.803 57.2254C114.023 57.6354 114.363 57.9654 114.823 58.2154C115.283 58.4654 115.843 58.5904 116.503 58.5904C117.173 58.5904 117.738 58.4704 118.198 58.2304C118.658 57.9804 119.003 57.6504 119.233 57.2404C119.453 56.8304 119.563 56.3804 119.563 55.8904Z" fill="#7087AD"/>
<path d="M129.682 28.6484L129.682 269.695" stroke="#7087AD" stroke-width="0.8" stroke-linecap="round" stroke-dasharray="3 3"/>
<path d="M166.7 97.6069C166.98 97.1169 167.39 96.7169 167.93 96.4069C168.47 96.0969 169.085 95.9419 169.775 95.9419C170.515 95.9419 171.18 96.1169 171.77 96.4669C172.36 96.8169 172.825 97.3119 173.165 97.9519C173.505 98.5819 173.675 99.3169 173.675 100.157C173.675 100.987 173.505 101.727 173.165 102.377C172.825 103.027 172.355 103.532 171.755 103.892C171.165 104.252 170.505 104.432 169.775 104.432C169.065 104.432 168.44 104.277 167.9 103.967C167.37 103.657 166.97 103.262 166.7 102.782V104.297H165.335V93.1969H166.7V97.6069ZM172.28 100.157C172.28 99.5369 172.155 98.9969 171.905 98.5369C171.655 98.0769 171.315 97.7269 170.885 97.4869C170.465 97.2469 170 97.1269 169.49 97.1269C168.99 97.1269 168.525 97.2519 168.095 97.5019C167.675 97.7419 167.335 98.0969 167.075 98.5669C166.825 99.0269 166.7 99.5619 166.7 100.172C166.7 100.792 166.825 101.337 167.075 101.807C167.335 102.267 167.675 102.622 168.095 102.872C168.525 103.112 168.99 103.232 169.49 103.232C170 103.232 170.465 103.112 170.885 102.872C171.315 102.622 171.655 102.267 171.905 101.807C172.155 101.337 172.28 100.787 172.28 100.157ZM182.762 96.0769V104.297H181.397V103.082C181.137 103.502 180.772 103.832 180.302 104.072C179.842 104.302 179.332 104.417 178.772 104.417C178.132 104.417 177.557 104.287 177.047 104.027C176.537 103.757 176.132 103.357 175.832 102.827C175.542 102.297 175.397 101.652 175.397 100.892V96.0769H176.747V100.712C176.747 101.522 176.952 102.147 177.362 102.587C177.772 103.017 178.332 103.232 179.042 103.232C179.772 103.232 180.347 103.007 180.767 102.557C181.187 102.107 181.397 101.452 181.397 100.592V96.0769H182.762ZM187.977 104.432C187.347 104.432 186.782 104.327 186.282 104.117C185.782 103.897 185.387 103.597 185.097 103.217C184.807 102.827 184.647 102.382 184.617 101.882H186.027C186.067 102.292 186.257 102.627 186.597 102.887C186.947 103.147 187.402 103.277 187.962 103.277C188.482 103.277 188.892 103.162 189.192 102.932C189.492 102.702 189.642 102.412 189.642 102.062C189.642 101.702 189.482 101.437 189.162 101.267C188.842 101.087 188.347 100.912 187.677 100.742C187.067 100.582 186.567 100.422 186.177 100.262C185.797 100.092 185.467 99.8469 185.187 99.5269C184.917 99.1969 184.782 98.7669 184.782 98.2369C184.782 97.8169 184.907 97.4319 185.157 97.0819C185.407 96.7319 185.762 96.4569 186.222 96.2569C186.682 96.0469 187.207 95.9419 187.797 95.9419C188.707 95.9419 189.442 96.1719 190.002 96.6319C190.562 97.0919 190.862 97.7219 190.902 98.5219H189.537C189.507 98.0919 189.332 97.7469 189.012 97.4869C188.702 97.2269 188.282 97.0969 187.752 97.0969C187.262 97.0969 186.872 97.2019 186.582 97.4119C186.292 97.6219 186.147 97.8969 186.147 98.2369C186.147 98.5069 186.232 98.7319 186.402 98.9119C186.582 99.0819 186.802 99.2219 187.062 99.3319C187.332 99.4319 187.702 99.5469 188.172 99.6769C188.762 99.8369 189.242 99.9969 189.612 100.157C189.982 100.307 190.297 100.537 190.557 100.847C190.827 101.157 190.967 101.562 190.977 102.062C190.977 102.512 190.852 102.917 190.602 103.277C190.352 103.637 189.997 103.922 189.537 104.132C189.087 104.332 188.567 104.432 187.977 104.432ZM194.569 97.2019V102.047C194.569 102.447 194.654 102.732 194.824 102.902C194.994 103.062 195.289 103.142 195.709 103.142H196.714V104.297H195.484C194.724 104.297 194.154 104.122 193.774 103.772C193.394 103.422 193.204 102.847 193.204 102.047V97.2019H192.139V96.0769H193.204V94.0069H194.569V96.0769H196.714V97.2019H194.569ZM201.952 104.432C201.182 104.432 200.482 104.257 199.852 103.907C199.232 103.557 198.742 103.062 198.382 102.422C198.032 101.772 197.857 101.022 197.857 100.172C197.857 99.3319 198.037 98.5919 198.397 97.9519C198.767 97.3019 199.267 96.8069 199.897 96.4669C200.527 96.1169 201.232 95.9419 202.012 95.9419C202.792 95.9419 203.497 96.1169 204.127 96.4669C204.757 96.8069 205.252 97.2969 205.612 97.9369C205.982 98.5769 206.167 99.3219 206.167 100.172C206.167 101.022 205.977 101.772 205.597 102.422C205.227 103.062 204.722 103.557 204.082 103.907C203.442 104.257 202.732 104.432 201.952 104.432ZM201.952 103.232C202.442 103.232 202.902 103.117 203.332 102.887C203.762 102.657 204.107 102.312 204.367 101.852C204.637 101.392 204.772 100.832 204.772 100.172C204.772 99.5119 204.642 98.9519 204.382 98.4919C204.122 98.0319 203.782 97.6919 203.362 97.4719C202.942 97.2419 202.487 97.1269 201.997 97.1269C201.497 97.1269 201.037 97.2419 200.617 97.4719C200.207 97.6919 199.877 98.0319 199.627 98.4919C199.377 98.9519 199.252 99.5119 199.252 100.172C199.252 100.842 199.372 101.407 199.612 101.867C199.862 102.327 200.192 102.672 200.602 102.902C201.012 103.122 201.462 103.232 201.952 103.232Z" fill="#7087AD"/>
<path d="M242.126 112.297L98.1343 112.297" stroke="#7087AD" stroke-width="0.8" stroke-linecap="round" stroke-dasharray="3 3"/>
<path d="M159.381 187.719C159.381 186.869 159.551 186.129 159.891 185.499C160.231 184.859 160.701 184.364 161.301 184.014C161.911 183.664 162.606 183.489 163.386 183.489C164.396 183.489 165.226 183.734 165.876 184.224C166.536 184.714 166.971 185.394 167.181 186.264H165.711C165.571 185.764 165.296 185.369 164.886 185.079C164.486 184.789 163.986 184.644 163.386 184.644C162.606 184.644 161.976 184.914 161.496 185.454C161.016 185.984 160.776 186.739 160.776 187.719C160.776 188.709 161.016 189.474 161.496 190.014C161.976 190.554 162.606 190.824 163.386 190.824C163.986 190.824 164.486 190.684 164.886 190.404C165.286 190.124 165.561 189.724 165.711 189.204H167.181C166.961 190.044 166.521 190.719 165.861 191.229C165.201 191.729 164.376 191.979 163.386 191.979C162.606 191.979 161.911 191.804 161.301 191.454C160.701 191.104 160.231 190.609 159.891 189.969C159.551 189.329 159.381 188.579 159.381 187.719ZM169.708 182.289C169.448 182.289 169.228 182.199 169.048 182.019C168.868 181.839 168.778 181.619 168.778 181.359C168.778 181.099 168.868 180.879 169.048 180.699C169.228 180.519 169.448 180.429 169.708 180.429C169.958 180.429 170.168 180.519 170.338 180.699C170.518 180.879 170.608 181.099 170.608 181.359C170.608 181.619 170.518 181.839 170.338 182.019C170.168 182.199 169.958 182.289 169.708 182.289ZM170.368 183.624V191.844H169.003V183.624H170.368ZM176.699 183.474C177.699 183.474 178.509 183.779 179.129 184.389C179.749 184.989 180.059 185.859 180.059 186.999V191.844H178.709V187.194C178.709 186.374 178.504 185.749 178.094 185.319C177.684 184.879 177.124 184.659 176.414 184.659C175.694 184.659 175.119 184.884 174.689 185.334C174.269 185.784 174.059 186.439 174.059 187.299V191.844H172.694V183.624H174.059V184.794C174.329 184.374 174.694 184.049 175.154 183.819C175.624 183.589 176.139 183.474 176.699 183.474ZM183.954 184.749V189.594C183.954 189.994 184.039 190.279 184.209 190.449C184.379 190.609 184.674 190.689 185.094 190.689H186.099V191.844H184.869C184.109 191.844 183.539 191.669 183.159 191.319C182.779 190.969 182.589 190.394 182.589 189.594V184.749H181.524V183.624H182.589V181.554H183.954V183.624H186.099V184.749H183.954ZM195.043 183.624V191.844H193.678V190.629C193.418 191.049 193.053 191.379 192.583 191.619C192.123 191.849 191.613 191.964 191.053 191.964C190.413 191.964 189.838 191.834 189.328 191.574C188.818 191.304 188.413 190.904 188.113 190.374C187.823 189.844 187.678 189.199 187.678 188.439V183.624H189.028V188.259C189.028 189.069 189.233 189.694 189.643 190.134C190.053 190.564 190.613 190.779 191.323 190.779C192.053 190.779 192.628 190.554 193.048 190.104C193.468 189.654 193.678 188.999 193.678 188.139V183.624H195.043ZM198.712 184.959C198.952 184.489 199.292 184.124 199.732 183.864C200.182 183.604 200.727 183.474 201.367 183.474V184.884H201.007C199.477 184.884 198.712 185.714 198.712 187.374V191.844H197.347V183.624H198.712V184.959ZM202.433 187.704C202.433 186.864 202.603 186.129 202.943 185.499C203.283 184.859 203.748 184.364 204.338 184.014C204.938 183.664 205.603 183.489 206.333 183.489C207.053 183.489 207.678 183.644 208.208 183.954C208.738 184.264 209.133 184.654 209.393 185.124V183.624H210.773V191.844H209.393V190.314C209.123 190.794 208.718 191.194 208.178 191.514C207.648 191.824 207.028 191.979 206.318 191.979C205.588 191.979 204.928 191.799 204.338 191.439C203.748 191.079 203.283 190.574 202.943 189.924C202.603 189.274 202.433 188.534 202.433 187.704ZM209.393 187.719C209.393 187.099 209.268 186.559 209.018 186.099C208.768 185.639 208.428 185.289 207.998 185.049C207.578 184.799 207.113 184.674 206.603 184.674C206.093 184.674 205.628 184.794 205.208 185.034C204.788 185.274 204.453 185.624 204.203 186.084C203.953 186.544 203.828 187.084 203.828 187.704C203.828 188.334 203.953 188.884 204.203 189.354C204.453 189.814 204.788 190.169 205.208 190.419C205.628 190.659 206.093 190.779 206.603 190.779C207.113 190.779 207.578 190.659 207.998 190.419C208.428 190.169 208.768 189.814 209.018 189.354C209.268 188.884 209.393 188.339 209.393 187.719Z" fill="#7087AD"/>
<path d="M242.126 198.016L98.1343 198.016" stroke="#7087AD" stroke-width="0.8" stroke-linecap="round" stroke-dasharray="3 3"/>
<path d="M158.935 241.875C158.935 241.025 159.105 240.285 159.445 239.655C159.785 239.015 160.255 238.52 160.855 238.17C161.465 237.82 162.16 237.645 162.94 237.645C163.95 237.645 164.78 237.89 165.43 238.38C166.09 238.87 166.525 239.55 166.735 240.42H165.265C165.125 239.92 164.85 239.525 164.44 239.235C164.04 238.945 163.54 238.8 162.94 238.8C162.16 238.8 161.53 239.07 161.05 239.61C160.57 240.14 160.33 240.895 160.33 241.875C160.33 242.865 160.57 243.63 161.05 244.17C161.53 244.71 162.16 244.98 162.94 244.98C163.54 244.98 164.04 244.84 164.44 244.56C164.84 244.28 165.115 243.88 165.265 243.36H166.735C166.515 244.2 166.075 244.875 165.415 245.385C164.755 245.885 163.93 246.135 162.94 246.135C162.16 246.135 161.465 245.96 160.855 245.61C160.255 245.26 159.785 244.765 159.445 244.125C159.105 243.485 158.935 242.735 158.935 241.875ZM168.046 241.86C168.046 241.02 168.216 240.285 168.556 239.655C168.896 239.015 169.361 238.52 169.951 238.17C170.551 237.82 171.216 237.645 171.946 237.645C172.666 237.645 173.291 237.8 173.821 238.11C174.351 238.42 174.746 238.81 175.006 239.28V237.78H176.386V246H175.006V244.47C174.736 244.95 174.331 245.35 173.791 245.67C173.261 245.98 172.641 246.135 171.931 246.135C171.201 246.135 170.541 245.955 169.951 245.595C169.361 245.235 168.896 244.73 168.556 244.08C168.216 243.43 168.046 242.69 168.046 241.86ZM175.006 241.875C175.006 241.255 174.881 240.715 174.631 240.255C174.381 239.795 174.041 239.445 173.611 239.205C173.191 238.955 172.726 238.83 172.216 238.83C171.706 238.83 171.241 238.95 170.821 239.19C170.401 239.43 170.066 239.78 169.816 240.24C169.566 240.7 169.441 241.24 169.441 241.86C169.441 242.49 169.566 243.04 169.816 243.51C170.066 243.97 170.401 244.325 170.821 244.575C171.241 244.815 171.706 244.935 172.216 244.935C172.726 244.935 173.191 244.815 173.611 244.575C174.041 244.325 174.381 243.97 174.631 243.51C174.881 243.04 175.006 242.495 175.006 241.875ZM178.183 241.86C178.183 241.02 178.353 240.285 178.693 239.655C179.033 239.015 179.498 238.52 180.088 238.17C180.688 237.82 181.358 237.645 182.098 237.645C182.738 237.645 183.333 237.795 183.883 238.095C184.433 238.385 184.853 238.77 185.143 239.25V234.9H186.523V246H185.143V244.455C184.873 244.945 184.473 245.35 183.943 245.67C183.413 245.98 182.793 246.135 182.083 246.135C181.353 246.135 180.688 245.955 180.088 245.595C179.498 245.235 179.033 244.73 178.693 244.08C178.353 243.43 178.183 242.69 178.183 241.86ZM185.143 241.875C185.143 241.255 185.018 240.715 184.768 240.255C184.518 239.795 184.178 239.445 183.748 239.205C183.328 238.955 182.863 238.83 182.353 238.83C181.843 238.83 181.378 238.95 180.958 239.19C180.538 239.43 180.203 239.78 179.953 240.24C179.703 240.7 179.578 241.24 179.578 241.86C179.578 242.49 179.703 243.04 179.953 243.51C180.203 243.97 180.538 244.325 180.958 244.575C181.378 244.815 181.843 244.935 182.353 244.935C182.863 244.935 183.328 244.815 183.748 244.575C184.178 244.325 184.518 243.97 184.768 243.51C185.018 243.04 185.143 242.495 185.143 241.875ZM196.33 241.575C196.33 241.835 196.315 242.11 196.285 242.4H189.715C189.765 243.21 190.04 243.845 190.54 244.305C191.05 244.755 191.665 244.98 192.385 244.98C192.975 244.98 193.465 244.845 193.855 244.575C194.255 244.295 194.535 243.925 194.695 243.465H196.165C195.945 244.255 195.505 244.9 194.845 245.4C194.185 245.89 193.365 246.135 192.385 246.135C191.605 246.135 190.905 245.96 190.285 245.61C189.675 245.26 189.195 244.765 188.845 244.125C188.495 243.475 188.32 242.725 188.32 241.875C188.32 241.025 188.49 240.28 188.83 239.64C189.17 239 189.645 238.51 190.255 238.17C190.875 237.82 191.585 237.645 192.385 237.645C193.165 237.645 193.855 237.815 194.455 238.155C195.055 238.495 195.515 238.965 195.835 239.565C196.165 240.155 196.33 240.825 196.33 241.575ZM194.92 241.29C194.92 240.77 194.805 240.325 194.575 239.955C194.345 239.575 194.03 239.29 193.63 239.1C193.24 238.9 192.805 238.8 192.325 238.8C191.635 238.8 191.045 239.02 190.555 239.46C190.075 239.9 189.8 240.51 189.73 241.29H194.92ZM199.497 239.115C199.737 238.645 200.077 238.28 200.517 238.02C200.967 237.76 201.512 237.63 202.152 237.63V239.04H201.792C200.262 239.04 199.497 239.87 199.497 241.53V246H198.132V237.78H199.497V239.115ZM203.217 241.86C203.217 241.02 203.387 240.285 203.727 239.655C204.067 239.015 204.532 238.52 205.122 238.17C205.722 237.82 206.387 237.645 207.117 237.645C207.837 237.645 208.462 237.8 208.992 238.11C209.522 238.42 209.917 238.81 210.177 239.28V237.78H211.557V246H210.177V244.47C209.907 244.95 209.502 245.35 208.962 245.67C208.432 245.98 207.812 246.135 207.102 246.135C206.372 246.135 205.712 245.955 205.122 245.595C204.532 245.235 204.067 244.73 203.727 244.08C203.387 243.43 203.217 242.69 203.217 241.86ZM210.177 241.875C210.177 241.255 210.052 240.715 209.802 240.255C209.552 239.795 209.212 239.445 208.782 239.205C208.362 238.955 207.897 238.83 207.387 238.83C206.877 238.83 206.412 238.95 205.992 239.19C205.572 239.43 205.237 239.78 204.987 240.24C204.737 240.7 204.612 241.24 204.612 241.86C204.612 242.49 204.737 243.04 204.987 243.51C205.237 243.97 205.572 244.325 205.992 244.575C206.412 244.815 206.877 244.935 207.387 244.935C207.897 244.935 208.362 244.815 208.782 244.575C209.212 244.325 209.552 243.97 209.802 243.51C210.052 243.04 210.177 242.495 210.177 241.875Z" fill="#7087AD"/>
<path d="M242.126 251.977L98.1343 251.977" stroke="#7087AD" stroke-width="0.8" stroke-linecap="round" stroke-dasharray="3 3"/>
<path d="M111.437 11.9302C111.437 11.2582 111.573 10.6702 111.845 10.1662C112.117 9.65419 112.489 9.25819 112.961 8.97819C113.441 8.69819 113.973 8.55819 114.557 8.55819C115.133 8.55819 115.633 8.68219 116.057 8.93019C116.481 9.17819 116.797 9.49019 117.005 9.86619V8.66619H118.109V15.2422H117.005V14.0182C116.789 14.4022 116.465 14.7222 116.033 14.9782C115.609 15.2262 115.113 15.3502 114.545 15.3502C113.961 15.3502 113.433 15.2062 112.961 14.9182C112.489 14.6302 112.117 14.2262 111.845 13.7062C111.573 13.1862 111.437 12.5942 111.437 11.9302ZM117.005 11.9422C117.005 11.4462 116.905 11.0142 116.705 10.6462C116.505 10.2782 116.233 9.99819 115.889 9.80619C115.553 9.60619 115.181 9.50619 114.773 9.50619C114.365 9.50619 113.993 9.60219 113.657 9.79419C113.321 9.98619 113.053 10.2662 112.853 10.6342C112.653 11.0022 112.553 11.4342 112.553 11.9302C112.553 12.4342 112.653 12.8742 112.853 13.2502C113.053 13.6182 113.321 13.9022 113.657 14.1022C113.993 14.2942 114.365 14.3902 114.773 14.3902C115.181 14.3902 115.553 14.2942 115.889 14.1022C116.233 13.9022 116.505 13.6182 116.705 13.2502C116.905 12.8742 117.005 12.4382 117.005 11.9422ZM123.158 8.54619C123.958 8.54619 124.606 8.79019 125.102 9.27819C125.598 9.75819 125.846 10.4542 125.846 11.3662V15.2422H124.766V11.5222C124.766 10.8662 124.602 10.3662 124.274 10.0222C123.946 9.67019 123.498 9.49419 122.93 9.49419C122.354 9.49419 121.894 9.67419 121.55 10.0342C121.214 10.3942 121.046 10.9182 121.046 11.6062V15.2422H119.954V8.66619H121.046V9.60219C121.262 9.26619 121.554 9.00619 121.922 8.82219C122.298 8.63819 122.71 8.54619 123.158 8.54619ZM127.222 11.9422C127.222 11.2622 127.358 10.6702 127.63 10.1662C127.902 9.65419 128.278 9.25819 128.758 8.97819C129.246 8.69819 129.802 8.55819 130.426 8.55819C131.234 8.55819 131.898 8.75419 132.418 9.14619C132.946 9.53819 133.294 10.0822 133.462 10.7782H132.286C132.174 10.3782 131.954 10.0622 131.626 9.83019C131.306 9.59819 130.906 9.48219 130.426 9.48219C129.802 9.48219 129.298 9.69819 128.914 10.1302C128.53 10.5542 128.338 11.1582 128.338 11.9422C128.338 12.7342 128.53 13.3462 128.914 13.7782C129.298 14.2102 129.802 14.4262 130.426 14.4262C130.906 14.4262 131.306 14.3142 131.626 14.0902C131.946 13.8662 132.166 13.5462 132.286 13.1302H133.462C133.286 13.8022 132.934 14.3422 132.406 14.7502C131.878 15.1502 131.218 15.3502 130.426 15.3502C129.802 15.3502 129.246 15.2102 128.758 14.9302C128.278 14.6502 127.902 14.2542 127.63 13.7422C127.358 13.2302 127.222 12.6302 127.222 11.9422ZM138.183 8.54619C138.679 8.54619 139.127 8.65419 139.527 8.87019C139.927 9.07819 140.239 9.39419 140.463 9.81819C140.695 10.2422 140.811 10.7582 140.811 11.3662V15.2422H139.731V11.5222C139.731 10.8662 139.567 10.3662 139.239 10.0222C138.911 9.67019 138.463 9.49419 137.895 9.49419C137.319 9.49419 136.859 9.67419 136.515 10.0342C136.179 10.3942 136.011 10.9182 136.011 11.6062V15.2422H134.919V6.36219H136.011V9.60219C136.227 9.26619 136.523 9.00619 136.899 8.82219C137.283 8.63819 137.711 8.54619 138.183 8.54619ZM145.463 15.3502C144.847 15.3502 144.287 15.2102 143.783 14.9302C143.287 14.6502 142.895 14.2542 142.607 13.7422C142.327 13.2222 142.187 12.6222 142.187 11.9422C142.187 11.2702 142.331 10.6782 142.619 10.1662C142.915 9.64619 143.315 9.25019 143.819 8.97819C144.323 8.69819 144.887 8.55819 145.511 8.55819C146.135 8.55819 146.699 8.69819 147.203 8.97819C147.707 9.25019 148.103 9.64219 148.391 10.1542C148.687 10.6662 148.835 11.2622 148.835 11.9422C148.835 12.6222 148.683 13.2222 148.379 13.7422C148.083 14.2542 147.679 14.6502 147.167 14.9302C146.655 15.2102 146.087 15.3502 145.463 15.3502ZM145.463 14.3902C145.855 14.3902 146.223 14.2982 146.567 14.1142C146.911 13.9302 147.187 13.6542 147.395 13.2862C147.611 12.9182 147.719 12.4702 147.719 11.9422C147.719 11.4142 147.615 10.9662 147.407 10.5982C147.199 10.2302 146.927 9.95819 146.591 9.78219C146.255 9.59819 145.891 9.50619 145.499 9.50619C145.099 9.50619 144.731 9.59819 144.395 9.78219C144.067 9.95819 143.803 10.2302 143.603 10.5982C143.403 10.9662 143.303 11.4142 143.303 11.9422C143.303 12.4782 143.399 12.9302 143.591 13.2982C143.791 13.6662 144.055 13.9422 144.383 14.1262C144.711 14.3022 145.071 14.3902 145.463 14.3902ZM153.062 11.9302C153.062 11.2582 153.198 10.6702 153.47 10.1662C153.742 9.65419 154.114 9.25819 154.586 8.97819C155.066 8.69819 155.602 8.55819 156.194 8.55819C156.706 8.55819 157.182 8.67819 157.622 8.91819C158.062 9.15019 158.398 9.45819 158.63 9.84219V6.36219H159.734V15.2422H158.63V14.0062C158.414 14.3982 158.094 14.7222 157.67 14.9782C157.246 15.2262 156.75 15.3502 156.182 15.3502C155.598 15.3502 155.066 15.2062 154.586 14.9182C154.114 14.6302 153.742 14.2262 153.47 13.7062C153.198 13.1862 153.062 12.5942 153.062 11.9302ZM158.63 11.9422C158.63 11.4462 158.53 11.0142 158.33 10.6462C158.13 10.2782 157.858 9.99819 157.514 9.80619C157.178 9.60619 156.806 9.50619 156.398 9.50619C155.99 9.50619 155.618 9.60219 155.282 9.79419C154.946 9.98619 154.678 10.2662 154.478 10.6342C154.278 11.0022 154.178 11.4342 154.178 11.9302C154.178 12.4342 154.278 12.8742 154.478 13.2502C154.678 13.6182 154.946 13.9022 155.282 14.1022C155.618 14.2942 155.99 14.3902 156.398 14.3902C156.806 14.3902 157.178 14.2942 157.514 14.1022C157.858 13.9022 158.13 13.6182 158.33 13.2502C158.53 12.8742 158.63 12.4382 158.63 11.9422ZM167.579 11.7022C167.579 11.9102 167.567 12.1302 167.543 12.3622H162.287C162.327 13.0102 162.547 13.5182 162.947 13.8862C163.355 14.2462 163.847 14.4262 164.423 14.4262C164.895 14.4262 165.287 14.3182 165.599 14.1022C165.919 13.8782 166.143 13.5822 166.271 13.2142H167.447C167.271 13.8462 166.919 14.3622 166.391 14.7622C165.863 15.1542 165.207 15.3502 164.423 15.3502C163.799 15.3502 163.239 15.2102 162.743 14.9302C162.255 14.6502 161.871 14.2542 161.591 13.7422C161.311 13.2222 161.171 12.6222 161.171 11.9422C161.171 11.2622 161.307 10.6662 161.579 10.1542C161.851 9.64219 162.231 9.25019 162.719 8.97819C163.215 8.69819 163.783 8.55819 164.423 8.55819C165.047 8.55819 165.599 8.69419 166.079 8.96619C166.559 9.23819 166.927 9.61419 167.183 10.0942C167.447 10.5662 167.579 11.1022 167.579 11.7022ZM166.451 11.4742C166.451 11.0582 166.359 10.7022 166.175 10.4062C165.991 10.1022 165.739 9.87419 165.419 9.72219C165.107 9.56219 164.759 9.48219 164.375 9.48219C163.823 9.48219 163.351 9.65819 162.959 10.0102C162.575 10.3622 162.355 10.8502 162.299 11.4742H166.451ZM175.484 8.54619C175.98 8.54619 176.428 8.65419 176.828 8.87019C177.228 9.07819 177.54 9.39419 177.764 9.81819C177.996 10.2422 178.112 10.7582 178.112 11.3662V15.2422H177.032V11.5222C177.032 10.8662 176.868 10.3662 176.54 10.0222C176.212 9.67019 175.764 9.49419 175.196 9.49419C174.62 9.49419 174.16 9.67419 173.816 10.0342C173.48 10.3942 173.312 10.9182 173.312 11.6062V15.2422H172.22V6.36219H173.312V9.60219C173.528 9.26619 173.824 9.00619 174.2 8.82219C174.584 8.63819 175.012 8.54619 175.484 8.54619ZM182.764 15.3502C182.148 15.3502 181.588 15.2102 181.084 14.9302C180.588 14.6502 180.196 14.2542 179.908 13.7422C179.628 13.2222 179.488 12.6222 179.488 11.9422C179.488 11.2702 179.632 10.6782 179.92 10.1662C180.216 9.64619 180.616 9.25019 181.12 8.97819C181.624 8.69819 182.188 8.55819 182.812 8.55819C183.436 8.55819 184 8.69819 184.504 8.97819C185.008 9.25019 185.404 9.64219 185.692 10.1542C185.988 10.6662 186.136 11.2622 186.136 11.9422C186.136 12.6222 185.984 13.2222 185.68 13.7422C185.384 14.2542 184.98 14.6502 184.468 14.9302C183.956 15.2102 183.388 15.3502 182.764 15.3502ZM182.764 14.3902C183.156 14.3902 183.524 14.2982 183.868 14.1142C184.212 13.9302 184.488 13.6542 184.696 13.2862C184.912 12.9182 185.02 12.4702 185.02 11.9422C185.02 11.4142 184.916 10.9662 184.708 10.5982C184.5 10.2302 184.228 9.95819 183.892 9.78219C183.556 9.59819 183.192 9.50619 182.8 9.50619C182.4 9.50619 182.032 9.59819 181.696 9.78219C181.368 9.95819 181.104 10.2302 180.904 10.5982C180.704 10.9662 180.604 11.4142 180.604 11.9422C180.604 12.4782 180.7 12.9302 180.892 13.2982C181.092 13.6662 181.356 13.9422 181.684 14.1262C182.012 14.3022 182.372 14.3902 182.764 14.3902ZM195.48 8.54619C195.992 8.54619 196.448 8.65419 196.848 8.87019C197.248 9.07819 197.564 9.39419 197.796 9.81819C198.028 10.2422 198.144 10.7582 198.144 11.3662V15.2422H197.064V11.5222C197.064 10.8662 196.9 10.3662 196.572 10.0222C196.252 9.67019 195.816 9.49419 195.264 9.49419C194.696 9.49419 194.244 9.67819 193.908 10.0462C193.572 10.4062 193.404 10.9302 193.404 11.6182V15.2422H192.324V11.5222C192.324 10.8662 192.16 10.3662 191.832 10.0222C191.512 9.67019 191.076 9.49419 190.524 9.49419C189.956 9.49419 189.504 9.67819 189.168 10.0462C188.832 10.4062 188.664 10.9302 188.664 11.6182V15.2422H187.572V8.66619H188.664V9.61419C188.88 9.27019 189.168 9.00619 189.528 8.82219C189.896 8.63819 190.3 8.54619 190.74 8.54619C191.292 8.54619 191.78 8.67019 192.204 8.91819C192.628 9.16619 192.944 9.53019 193.152 10.0102C193.336 9.54619 193.64 9.18619 194.064 8.93019C194.488 8.67419 194.96 8.54619 195.48 8.54619ZM201.027 9.89019C201.251 9.49819 201.579 9.17819 202.011 8.93019C202.443 8.68219 202.935 8.55819 203.487 8.55819C204.079 8.55819 204.611 8.69819 205.083 8.97819C205.555 9.25819 205.927 9.65419 206.199 10.1662C206.471 10.6702 206.607 11.2582 206.607 11.9302C206.607 12.5942 206.471 13.1862 206.199 13.7062C205.927 14.2262 205.551 14.6302 205.071 14.9182C204.599 15.2062 204.071 15.3502 203.487 15.3502C202.919 15.3502 202.419 15.2262 201.987 14.9782C201.563 14.7302 201.243 14.4142 201.027 14.0302V15.2422H199.935V6.36219H201.027V9.89019ZM205.491 11.9302C205.491 11.4342 205.391 11.0022 205.191 10.6342C204.991 10.2662 204.719 9.98619 204.375 9.79419C204.039 9.60219 203.667 9.50619 203.259 9.50619C202.859 9.50619 202.487 9.60619 202.143 9.80619C201.807 9.99819 201.535 10.2822 201.327 10.6582C201.127 11.0262 201.027 11.4542 201.027 11.9422C201.027 12.4382 201.127 12.8742 201.327 13.2502C201.535 13.6182 201.807 13.9022 202.143 14.1022C202.487 14.2942 202.859 14.3902 203.259 14.3902C203.667 14.3902 204.039 14.2942 204.375 14.1022C204.719 13.9022 204.991 13.6182 205.191 13.2502C205.391 12.8742 205.491 12.4342 205.491 11.9302ZM209.136 9.73419C209.328 9.35819 209.6 9.06619 209.952 8.85819C210.312 8.65019 210.748 8.54619 211.26 8.54619V9.67419H210.972C209.748 9.67419 209.136 10.3382 209.136 11.6662V15.2422H208.044V8.66619H209.136V9.73419ZM215.389 15.3502C214.773 15.3502 214.213 15.2102 213.709 14.9302C213.213 14.6502 212.821 14.2542 212.533 13.7422C212.253 13.2222 212.113 12.6222 212.113 11.9422C212.113 11.2702 212.257 10.6782 212.545 10.1662C212.841 9.64619 213.241 9.25019 213.745 8.97819C214.249 8.69819 214.813 8.55819 215.437 8.55819C216.061 8.55819 216.625 8.69819 217.129 8.97819C217.633 9.25019 218.029 9.64219 218.317 10.1542C218.613 10.6662 218.761 11.2622 218.761 11.9422C218.761 12.6222 218.609 13.2222 218.305 13.7422C218.009 14.2542 217.605 14.6502 217.093 14.9302C216.581 15.2102 216.013 15.3502 215.389 15.3502ZM215.389 14.3902C215.781 14.3902 216.149 14.2982 216.493 14.1142C216.837 13.9302 217.113 13.6542 217.321 13.2862C217.537 12.9182 217.645 12.4702 217.645 11.9422C217.645 11.4142 217.541 10.9662 217.333 10.5982C217.125 10.2302 216.853 9.95819 216.517 9.78219C216.181 9.59819 215.817 9.50619 215.425 9.50619C215.025 9.50619 214.657 9.59819 214.321 9.78219C213.993 9.95819 213.729 10.2302 213.529 10.5982C213.329 10.9662 213.229 11.4142 213.229 11.9422C213.229 12.4782 213.325 12.9302 213.517 13.2982C213.717 13.6662 213.981 13.9422 214.309 14.1262C214.637 14.3022 214.997 14.3902 215.389 14.3902ZM222.525 15.3502C222.021 15.3502 221.569 15.2662 221.169 15.0982C220.769 14.9222 220.453 14.6822 220.221 14.3782C219.989 14.0662 219.861 13.7102 219.837 13.3102H220.965C220.997 13.6382 221.149 13.9062 221.421 14.1142C221.701 14.3222 222.065 14.4262 222.513 14.4262C222.929 14.4262 223.257 14.3342 223.497 14.1502C223.737 13.9662 223.857 13.7342 223.857 13.4542C223.857 13.1662 223.729 12.9542 223.473 12.8182C223.217 12.6742 222.821 12.5342 222.285 12.3982C221.797 12.2702 221.397 12.1422 221.085 12.0142C220.781 11.8782 220.517 11.6822 220.293 11.4262C220.077 11.1622 219.969 10.8182 219.969 10.3942C219.969 10.0582 220.069 9.75019 220.269 9.47019C220.469 9.19019 220.753 8.97019 221.121 8.81019C221.489 8.64219 221.909 8.55819 222.381 8.55819C223.109 8.55819 223.697 8.74219 224.145 9.11019C224.593 9.47819 224.833 9.98219 224.865 10.6222H223.773C223.749 10.2782 223.609 10.0022 223.353 9.79419C223.105 9.58619 222.769 9.48219 222.345 9.48219C221.953 9.48219 221.641 9.56619 221.409 9.73419C221.177 9.90219 221.061 10.1222 221.061 10.3942C221.061 10.6102 221.129 10.7902 221.265 10.9342C221.409 11.0702 221.585 11.1822 221.793 11.2702C222.009 11.3502 222.305 11.4422 222.681 11.5462C223.153 11.6742 223.537 11.8022 223.833 11.9302C224.129 12.0502 224.381 12.2342 224.589 12.4822C224.805 12.7302 224.917 13.0542 224.925 13.4542C224.925 13.8142 224.825 14.1382 224.625 14.4262C224.425 14.7142 224.141 14.9422 223.773 15.1102C223.413 15.2702 222.997 15.3502 222.525 15.3502Z" fill="#7087AD"/>
<path d="M78.5562 22.3906H257.907" stroke="#7087AD" stroke-width="0.8" stroke-dasharray="3 3"/>
<path d="M15.7738 70.42L21.9568 75.7144L21.2949 76.4654L15.1119 71.171L15.7738 70.42ZM20.5315 72.7405C20.0636 72.3398 19.7366 71.8957 19.5505 71.4082C19.3589 70.9159 19.3086 70.4239 19.3998 69.9324C19.4957 69.4354 19.7207 68.9861 20.0747 68.5845C20.4238 68.1884 20.8132 67.9185 21.2429 67.7747C21.6725 67.631 22.0813 67.5997 22.4692 67.6809L21.6336 66.9654L22.3028 66.2062L26.8815 70.1269L26.2124 70.8861L25.3601 70.1564C25.4966 70.5338 25.523 70.9474 25.4394 71.3972C25.3551 71.8366 25.1408 72.2516 24.7965 72.6422C24.4426 73.0438 24.0223 73.3211 23.5357 73.4739C23.0491 73.6268 22.5423 73.6418 22.0154 73.5188C21.4884 73.3958 20.9938 73.1364 20.5315 72.7405ZM23.9147 68.9186C23.5693 68.6229 23.2079 68.4341 22.8305 68.3522C22.453 68.2704 22.0932 68.2905 21.751 68.4126C21.4081 68.5244 21.113 68.7206 20.8657 69.0011C20.6184 69.2817 20.4598 69.5948 20.3898 69.9403C20.3198 70.2858 20.3523 70.6371 20.4873 70.994C20.6224 71.351 20.8625 71.6773 21.2079 71.973C21.5588 72.2735 21.9258 72.4671 22.3088 72.5537C22.6863 72.6356 23.0465 72.6206 23.3894 72.5088C23.7267 72.3922 24.019 72.1936 24.2663 71.9131C24.5136 71.6325 24.6722 71.3194 24.7422 70.9739C24.8115 70.6181 24.7786 70.2617 24.6436 69.9048C24.503 69.5431 24.26 69.2143 23.9147 68.9186ZM24.8268 64.823C24.6814 64.4668 24.6429 64.1057 24.7115 63.7396C24.7848 63.368 24.9767 63.0062 25.287 62.6541L26.0724 63.3266L25.8979 63.5247C25.156 64.3664 25.2474 65.1831 26.172 65.9749L28.6619 68.107L28 68.8579L23.4213 64.9372L24.0832 64.1863L24.8268 64.823ZM27.7032 59.9294C28.0475 59.5388 28.4344 59.2716 28.8641 59.1279C29.2986 58.9787 29.7098 58.9447 30.0977 59.0258L29.2622 58.3103L29.9313 57.5511L34.6103 61.5577C35.0281 61.9154 35.3209 62.3206 35.4888 62.7733C35.6623 63.2308 35.6955 63.7032 35.5884 64.1907C35.4861 64.6727 35.2434 65.131 34.8604 65.5656C34.3367 66.1598 33.7583 66.5333 33.1251 66.6861C32.4918 66.839 31.8986 66.7413 31.3454 66.3931L32 65.6504C32.3513 65.8064 32.7244 65.8266 33.1194 65.7111C33.52 65.6004 33.8803 65.3635 34.2003 65.0004C34.564 64.5878 34.7289 64.1401 34.695 63.6574C34.6659 63.1692 34.4146 62.7223 33.9412 62.3169L32.9803 61.4941C33.1168 61.8716 33.1456 62.2824 33.0669 62.7267C32.9881 63.1709 32.7766 63.5883 32.4323 63.9789C32.0784 64.3805 31.6556 64.6605 31.1642 64.8188C30.6776 64.9717 30.1708 64.9867 29.6439 64.8637C29.1169 64.7407 28.6223 64.4813 28.16 64.0854C27.6921 63.6847 27.3651 63.2406 27.179 62.7531C26.9874 62.2608 26.9371 61.7689 27.0283 61.2773C27.1243 60.7803 27.3492 60.331 27.7032 59.9294ZM31.5432 60.2635C31.1978 59.9678 30.8364 59.779 30.459 59.6971C30.0815 59.6153 29.7217 59.6354 29.3795 59.7575C29.0366 59.8693 28.7415 60.0655 28.4942 60.3461C28.2469 60.6266 28.0883 60.9397 28.0183 61.2852C27.9483 61.6307 27.9808 61.982 28.1159 62.3389C28.2509 62.6959 28.491 63.0222 28.8364 63.3179C29.1873 63.6184 29.5543 63.812 29.9373 63.8986C30.3148 63.9805 30.675 63.9655 31.0179 63.8537C31.3552 63.7371 31.6475 63.5385 31.8948 63.258C32.1421 62.9774 32.3008 62.6643 32.3707 62.3188C32.44 61.963 32.4071 61.6066 32.2721 61.2497C32.1315 60.888 31.8885 60.5593 31.5432 60.2635ZM37.4421 58.2949C37.0687 58.7185 36.6318 59.0202 36.1314 59.1998C35.6358 59.374 35.1225 59.4074 34.5914 59.3002C34.0596 59.1828 33.557 58.9213 33.0835 58.5159C32.6156 58.1152 32.2907 57.6632 32.1088 57.1599C31.9261 56.6463 31.8929 56.1352 32.0089 55.6264C32.1195 55.1129 32.3638 54.6416 32.7421 54.2124C33.1203 53.7833 33.5596 53.4789 34.06 53.2993C34.5549 53.1149 35.0679 53.0763 35.5989 53.1835C36.1348 53.2852 36.6395 53.5388 37.113 53.9442C37.5865 54.3496 37.9121 54.8119 38.0899 55.3309C38.267 55.8398 38.2979 56.3537 38.1825 56.8727C38.0671 57.3918 37.8203 57.8658 37.4421 58.2949ZM36.7737 57.7226C37.0113 57.453 37.1703 57.1451 37.2506 56.7988C37.331 56.4526 37.3061 56.0982 37.176 55.7358C37.0507 55.3678 36.8042 55.0264 36.4366 54.7116C36.0689 54.3968 35.694 54.2012 35.3117 54.1249C34.9294 54.0485 34.5751 54.0734 34.2489 54.1995C33.9171 54.3209 33.6324 54.5163 33.3949 54.7859C33.1524 55.061 32.9934 55.3689 32.9179 55.7097C32.8416 56.0402 32.871 56.3839 33.006 56.7408C33.141 57.0978 33.3923 57.4336 33.76 57.7484C34.1332 58.068 34.5061 58.2715 34.8787 58.3588C35.2561 58.4407 35.6083 58.4237 35.9352 58.3079C36.2566 58.1872 36.5361 57.9921 36.7737 57.7226ZM39.6667 51.0302C39.1988 50.6296 38.8718 50.1855 38.6857 49.6979C38.4941 49.2056 38.4438 48.7137 38.535 48.2222C38.631 47.7251 38.8583 47.2731 39.2172 46.866C39.5275 46.5139 39.8996 46.2581 40.3334 46.0986C40.7616 45.9343 41.1797 45.8869 41.5877 45.9563L39.1646 43.8815L39.8338 43.1223L46.0168 48.4167L45.3476 49.1759L44.487 48.4389C44.629 48.8212 44.6607 49.2344 44.5819 49.6786C44.4976 50.1181 44.2833 50.5331 43.939 50.9237C43.5851 51.3253 43.1623 51.6053 42.6709 51.7637C42.1843 51.9165 41.6775 51.9315 41.1506 51.8085C40.6236 51.6855 40.129 51.4261 39.6667 51.0302ZM43.0499 47.2084C42.7045 46.9126 42.3431 46.7238 41.9657 46.642C41.5882 46.5601 41.2284 46.5802 40.8862 46.7023C40.5433 46.8141 40.2482 47.0103 40.0009 47.2909C39.7536 47.5715 39.595 47.8845 39.525 48.23C39.455 48.5756 39.4875 48.9268 39.6226 49.2838C39.7576 49.6407 39.9977 49.967 40.3431 50.2628C40.694 50.5632 41.061 50.7568 41.444 50.8435C41.8215 50.9253 42.1817 50.9104 42.5246 50.7985C42.8619 50.6819 43.1542 50.4834 43.4015 50.2028C43.6488 49.9222 43.8075 49.6092 43.8774 49.2636C43.9467 48.9078 43.9138 48.5515 43.7788 48.1945C43.6382 47.8328 43.3952 47.5041 43.0499 47.2084ZM48.3071 40.911C48.4519 41.035 48.5978 41.1744 48.7448 41.3292L45.5591 44.9437C46.0345 45.3025 46.5216 45.4541 47.0203 45.3984C47.5182 45.3325 47.9418 45.1015 48.2909 44.7054C48.577 44.3808 48.7394 44.0468 48.7781 43.7035C48.8161 43.3499 48.7457 43.0194 48.5671 42.7119L49.2799 41.9032C49.6133 42.4011 49.7592 42.9508 49.7177 43.5523C49.6706 44.1492 49.4094 44.7171 48.9342 45.2563C48.556 45.6854 48.1191 45.987 47.6235 46.1612C47.1328 46.3298 46.6243 46.3578 46.0981 46.2451C45.5663 46.1276 45.0637 45.8661 44.5902 45.4607C44.1168 45.0553 43.7842 44.6064 43.5926 44.1141C43.401 43.6218 43.3583 43.1268 43.4647 42.629C43.5704 42.121 43.8172 41.6469 44.2051 41.2068C44.5833 40.7777 45.0126 40.4792 45.4929 40.3112C45.9732 40.1433 46.4581 40.1144 46.9475 40.2246C47.4361 40.3244 47.8893 40.5532 48.3071 40.911ZM47.4647 41.5507C47.175 41.3027 46.8714 41.1537 46.5537 41.1038C46.2306 41.0491 45.9191 41.0864 45.6193 41.2158C45.3188 41.335 45.0521 41.5266 44.8194 41.7907C44.4848 42.1703 44.3213 42.5998 44.3288 43.0793C44.3411 43.5532 44.5475 43.9954 44.9481 44.406L47.4647 41.5507ZM32.2703 72.8776C32.5806 72.5255 32.9322 72.2763 33.325 72.13C33.7123 71.979 34.1239 71.9501 34.5597 72.0433C34.9955 72.1366 35.4251 72.3645 35.8485 72.727L38.5473 75.0379L37.8927 75.7806L35.3025 73.5627C34.8457 73.1715 34.3982 72.9862 33.9599 73.0067C33.5208 73.0169 33.134 73.2118 32.7994 73.5914C32.4552 73.982 32.3093 74.4025 32.3619 74.853C32.4089 75.2987 32.6719 75.7266 33.151 76.1368L35.6743 78.2975L35.0197 79.0402L32.4295 76.8223C31.9727 76.4312 31.5252 76.2458 31.0869 76.2663C30.6478 76.2765 30.261 76.4714 29.9264 76.851C29.5822 77.2416 29.4363 77.6621 29.4889 78.1126C29.5359 78.5583 29.7989 78.9862 30.278 79.3964L32.8013 81.5571L32.1394 82.308L27.5607 78.3873L28.2226 77.6364L28.8826 78.2016C28.774 77.848 28.7648 77.4925 28.8549 77.1352C28.9498 76.7725 29.1306 76.4398 29.3973 76.1372C29.7319 75.7576 30.114 75.496 30.5437 75.3522C30.9733 75.2085 31.4183 75.2082 31.8786 75.3514C31.667 74.9482 31.6006 74.5245 31.6794 74.0803C31.7581 73.6361 31.9551 73.2352 32.2703 72.8776ZM37.0796 72.112C36.6117 71.7113 36.2847 71.2672 36.0987 70.7797C35.907 70.2874 35.8568 69.7954 35.9479 69.3039C36.0439 68.8069 36.2688 68.3576 36.6228 67.956C36.9719 67.5599 37.3613 67.29 37.791 67.1462C38.2207 67.0025 38.6294 66.9712 39.0173 67.0524L38.1818 66.3369L38.8509 65.5777L43.4297 69.4984L42.7605 70.2576L41.9083 69.5279C42.0447 69.9053 42.0712 70.3189 41.9876 70.7687C41.9033 71.2081 41.689 71.6231 41.3447 72.0137C40.9907 72.4153 40.5704 72.6926 40.0838 72.8454C39.5972 72.9983 39.0904 73.0133 38.5635 72.8903C38.0366 72.7673 37.5419 72.5079 37.0796 72.112ZM40.4628 68.2901C40.1174 67.9944 39.756 67.8056 39.3786 67.7237C39.0011 67.6419 38.6413 67.662 38.2991 67.7841C37.9562 67.8959 37.6611 68.0921 37.4138 68.3726C37.1665 68.6532 37.0079 68.9663 36.9379 69.3118C36.8679 69.6573 36.9005 70.0086 37.0355 70.3655C37.1705 70.7225 37.4107 71.0488 37.756 71.3445C38.1069 71.645 38.4739 71.8386 38.8569 71.9252C39.2344 72.0071 39.5946 71.9921 39.9375 71.8803C40.2748 71.7637 40.5672 71.5651 40.8144 71.2846C41.0617 71.004 41.2204 70.6909 41.2903 70.3454C41.3596 69.9896 41.3267 69.6332 41.1917 69.2763C41.0511 68.9146 40.8082 68.5858 40.4628 68.2901ZM41.8279 62.0338C42.3128 61.4837 42.8754 61.1835 43.5158 61.1334C44.1507 61.0785 44.7856 61.3229 45.4206 61.8667L48.1194 64.1776L47.4648 64.9203L44.8746 62.7024C44.4179 62.3113 43.9703 62.1259 43.532 62.1464C43.0881 62.1621 42.694 62.3652 42.3498 62.7558C42.0006 63.1519 41.8472 63.5756 41.8893 64.0268C41.9363 64.4725 42.1993 64.9004 42.6784 65.3106L45.2101 67.4785L44.5482 68.2294L39.9694 64.3087L40.6313 63.5578L41.283 64.1158C41.18 63.7669 41.176 63.4111 41.2709 63.0484C41.3707 62.6801 41.5563 62.3419 41.8279 62.0338ZM46.1904 57.1008C46.5347 56.7102 46.9217 56.4431 47.3513 56.2994C47.7859 56.1502 48.1971 56.1161 48.5849 56.1973L47.7494 55.4818L48.4185 54.7226L53.0975 58.7292C53.5153 59.0869 53.8082 59.4921 53.9761 59.9448C54.1495 60.4022 54.1827 60.8747 54.0756 61.3622C53.9733 61.8442 53.7307 62.3025 53.3476 62.7371C52.8239 63.3313 52.2455 63.7048 51.6123 63.8576C50.9791 64.0105 50.3859 63.9128 49.8326 63.5646L50.4873 62.8219C50.8385 62.9778 51.2116 62.9981 51.6066 62.8826C52.0072 62.7719 52.3675 62.535 52.6875 62.1719C53.0512 61.7593 53.2161 61.3116 53.1822 60.8289C53.1531 60.3406 52.9019 59.8938 52.4284 59.4884L51.4675 58.6656C51.604 59.0431 51.6328 59.4539 51.5541 59.8981C51.4753 60.3423 51.2638 60.7597 50.9196 61.1503C50.5656 61.5519 50.1429 61.8319 49.6514 61.9903C49.1648 62.1432 48.658 62.1581 48.1311 62.0351C47.6042 61.9122 47.1095 61.6527 46.6472 61.2568C46.1793 60.8562 45.8523 60.4121 45.6663 59.9245C45.4746 59.4322 45.4244 58.9403 45.5155 58.4488C45.6115 57.9518 45.8365 57.5024 46.1904 57.1008ZM50.0304 57.435C49.6851 57.1393 49.3236 56.9505 48.9462 56.8686C48.5687 56.7867 48.2089 56.8068 47.8667 56.9289C47.5238 57.0407 47.2287 57.2369 46.9814 57.5175C46.7341 57.7981 46.5755 58.1111 46.5055 58.4567C46.4356 58.8022 46.4681 59.1534 46.6031 59.5104C46.7381 59.8673 46.9783 60.1937 47.3236 60.4894C47.6746 60.7899 48.0415 60.9834 48.4246 61.0701C48.802 61.152 49.1622 61.137 49.5051 61.0252C49.8424 60.9086 50.1348 60.71 50.3821 60.4294C50.6293 60.1489 50.788 59.8358 50.8579 59.4903C50.9272 59.1345 50.8943 58.7781 50.7593 58.4211C50.6187 58.0594 50.3758 57.7307 50.0304 57.435ZM51.5624 55.6802C51.0945 55.2795 50.7675 54.8354 50.5815 54.3479C50.3898 53.8556 50.3396 53.3637 50.4307 52.8721C50.5267 52.3751 50.7517 51.9258 51.1056 51.5242C51.4548 51.1281 51.8441 50.8582 52.2738 50.7145C52.7035 50.5707 53.1123 50.5395 53.5001 50.6206L52.6646 49.9051L53.3337 49.1459L57.9125 53.0666L57.2433 53.8258L56.3911 53.0961C56.5275 53.4736 56.554 53.8872 56.4704 54.3369C56.3861 54.7763 56.1718 55.1913 55.8275 55.5819C55.4735 55.9835 55.0532 56.2608 54.5666 56.4136C54.08 56.5665 53.5732 56.5815 53.0463 56.4585C52.5194 56.3355 52.0247 56.0761 51.5624 55.6802ZM54.9456 51.8583C54.6003 51.5626 54.2389 51.3738 53.8614 51.292C53.4839 51.2101 53.1241 51.2302 52.7819 51.3523C52.439 51.4641 52.1439 51.6603 51.8966 51.9409C51.6493 52.2214 51.4907 52.5345 51.4207 52.88C51.3508 53.2256 51.3833 53.5768 51.5183 53.9337C51.6533 54.2907 51.8935 54.617 52.2388 54.9127C52.5898 55.2132 52.9567 55.4068 53.3398 55.4934C53.7172 55.5753 54.0774 55.5603 54.4203 55.4485C54.7576 55.3319 55.05 55.1333 55.2973 54.8528C55.5446 54.5722 55.7032 54.2591 55.7732 53.9136C55.8424 53.5578 55.8095 53.2014 55.6745 52.8445C55.5339 52.4828 55.291 52.1541 54.9456 51.8583Z" fill="#7087AD"/>
<path d="M27.5002 99.817L76.958 44.489" stroke="#7087AD" stroke-width="0.8" stroke-linecap="round" stroke-dasharray="3 3"/>
<path d="M79.5586 46.7916L74.2988 42.0551" stroke="#7087AD" stroke-width="0.8" stroke-linecap="round" stroke-dasharray="2 2"/>
<path d="M30.1078 102.314L24.7121 97.7325" stroke="#7087AD" stroke-width="0.8" stroke-linecap="round" stroke-dasharray="2 2"/>
<path d="M257.908 17.2422L257.908 28.6555" stroke="#7087AD" stroke-width="0.8" stroke-linecap="round" stroke-dasharray="3 3"/>
<path d="M78.5562 18.25L78.5562 27.2726" stroke="#7087AD" stroke-width="0.8" stroke-linecap="round" stroke-dasharray="3 3"/>
</svg>
